<svg width="1062" height="713" viewBox="0 0 1062 713" fill="none" xmlns="http://www.w3.org/2000/svg">
<path d="M499.38 580.15L467.29 203.56C467.29 203.56 471.75 50.2402 616.13 2.61017C616.13 2.61017 826.01 -39.0598 836.43 215.46C836.43 215.46 1049.28 190.16 1059.7 373.24C1059.7 373.24 1087.98 519.01 909.36 572.65L849.08 580.14H499.37L499.38 580.15Z" fill="#2387C8"/>
<path d="M448.08 134.3C448.08 134.3 435.41 219.67 450.19 297.29L471.83 576.19L153.07 573.6C153.07 573.6 28.5301 565.32 1.07006 444.23C1.07006 444.23 -27.4199 265.2 209.01 289.01C209.01 289.01 195.29 115.15 327.23 97.5603C327.23 97.5603 391.62 82.0403 448.08 134.3Z" fill="#A4D9F6"/>
<path d="M5.6 645.13C9.33 638.37 14.44 633.1 20.91 629.32C27.38 625.55 34.6 623.66 42.57 623.66C52.28 623.66 60.6 625.96 67.53 630.57C74.46 635.18 79.5 641.67 82.65 650.05H72.44C69.95 644.16 66.15 639.55 61.05 636.23C55.95 632.91 49.79 631.25 42.57 631.25C36.18 631.25 30.44 632.74 25.33 635.73C20.23 638.72 16.22 643.01 13.32 648.61C10.41 654.21 8.96 660.7 8.96 668.09C8.96 675.48 10.41 681.95 13.32 687.51C16.22 693.07 20.23 697.34 25.33 700.33C30.43 703.32 36.18 704.81 42.57 704.81C49.79 704.81 55.95 703.17 61.05 699.89C66.15 696.61 69.95 692.07 72.44 686.26H82.65C79.5 694.56 74.44 700.99 67.47 705.55C60.5 710.11 52.2 712.4 42.58 712.4C34.61 712.4 27.4 710.51 20.92 706.74C14.45 702.97 9.35 697.72 5.61 691C1.87 684.27 0 676.64 0 668.09C0 659.54 1.87 651.89 5.6 645.13Z" fill="#231F20"/>
<path d="M108.66 619.55V711.65H99.9502V619.55H108.66Z" fill="#231F20"/>
<path d="M189.68 681.03H133.3C133.55 686.18 134.79 690.57 137.03 694.22C139.27 697.87 142.21 700.63 145.87 702.5C149.52 704.37 153.5 705.3 157.82 705.3C163.46 705.3 168.21 703.93 172.07 701.19C175.93 698.45 178.48 694.76 179.72 690.11H188.93C187.27 696.75 183.72 702.16 178.29 706.35C172.85 710.54 166.03 712.64 157.82 712.64C151.43 712.64 145.7 711.21 140.64 708.35C135.58 705.49 131.62 701.42 128.75 696.15C125.89 690.88 124.46 684.72 124.46 677.67C124.46 670.62 125.87 664.44 128.69 659.12C131.51 653.81 135.45 649.74 140.51 646.92C145.57 644.1 151.34 642.69 157.81 642.69C164.28 642.69 169.95 644.1 174.8 646.92C179.65 649.74 183.39 653.54 186 658.31C188.61 663.08 189.92 668.37 189.92 674.18C189.92 677.17 189.84 679.45 189.67 681.03H189.68ZM178.04 660.99C175.92 657.42 173.04 654.73 169.39 652.9C165.74 651.08 161.75 650.16 157.44 650.16C150.97 650.16 145.45 652.24 140.89 656.38C136.33 660.53 133.8 666.38 133.3 673.93H181.09C181.17 668.87 180.16 664.55 178.04 660.99Z" fill="#231F20"/>
<path d="M206.05 659.19C208.83 653.92 212.69 649.86 217.63 646.99C222.57 644.13 228.15 642.7 234.37 642.7C240.59 642.7 246.42 644.19 251.11 647.18C255.8 650.17 259.18 653.98 261.25 658.63V643.69H269.96V711.65H261.25V696.59C259.09 701.24 255.67 705.07 250.98 708.1C246.29 711.13 240.71 712.64 234.24 712.64C227.77 712.64 222.56 711.19 217.62 708.28C212.68 705.38 208.82 701.27 206.04 695.96C203.26 690.65 201.87 684.51 201.87 677.54C201.87 670.57 203.26 664.45 206.04 659.18L206.05 659.19ZM257.88 663.24C255.64 659.09 252.59 655.9 248.73 653.66C244.87 651.42 240.62 650.3 235.97 650.3C231.32 650.3 226.84 651.38 223.03 653.54C219.21 655.7 216.2 658.83 214.01 662.94C211.81 667.05 210.71 671.92 210.71 677.56C210.71 683.2 211.81 687.99 214.01 692.18C216.21 696.37 219.22 699.57 223.03 701.76C226.85 703.96 231.16 705.06 235.97 705.06C240.78 705.06 244.87 703.94 248.73 701.7C252.59 699.46 255.64 696.27 257.88 692.12C260.12 687.97 261.24 683.16 261.24 677.68C261.24 672.2 260.12 667.39 257.88 663.24Z" fill="#231F20"/>
<path d="M341.65 649.98C346.79 655 349.37 662.28 349.37 671.82V711.65H340.78V672.82C340.78 665.44 338.93 659.79 335.24 655.89C331.55 651.99 326.51 650.04 320.12 650.04C313.73 650.04 308.34 652.12 304.44 656.26C300.54 660.41 298.59 666.51 298.59 674.56V711.65H289.88V643.69H298.59V655.27C300.75 651.12 303.86 647.95 307.92 645.75C311.98 643.55 316.59 642.45 321.74 642.45C329.87 642.45 336.51 644.96 341.65 649.98Z" fill="#231F20"/>
<path d="M414.02 709.54C409.66 707.55 406.24 704.77 403.75 701.2C401.26 697.63 399.93 693.65 399.77 689.25H408.98C409.39 693.48 411.26 697.2 414.58 700.39C417.9 703.59 422.75 705.18 429.14 705.18C435.03 705.18 439.7 703.67 443.14 700.64C446.58 697.61 448.3 693.78 448.3 689.13C448.3 685.4 447.35 682.39 445.44 680.11C443.53 677.83 441.17 676.13 438.35 675.01C435.53 673.89 431.63 672.67 426.65 671.34C420.84 669.76 416.24 668.23 412.83 666.73C409.43 665.24 406.52 662.91 404.12 659.76C401.71 656.61 400.51 652.34 400.51 646.94C400.51 642.46 401.67 638.46 403.99 634.93C406.31 631.4 409.59 628.64 413.82 626.65C418.05 624.66 422.91 623.66 428.38 623.66C436.43 623.66 442.92 625.63 447.86 629.57C452.8 633.51 455.64 638.59 456.39 644.82H446.93C446.35 641.25 444.4 638.08 441.08 635.3C437.76 632.52 433.28 631.13 427.64 631.13C422.41 631.13 418.06 632.52 414.57 635.3C411.09 638.08 409.34 641.88 409.34 646.69C409.34 650.34 410.29 653.29 412.2 655.53C414.11 657.77 416.49 659.47 419.36 660.63C422.22 661.79 426.1 663.04 431 664.36C436.64 665.94 441.21 667.49 444.69 669.03C448.17 670.57 451.12 672.91 453.53 676.06C455.94 679.21 457.14 683.45 457.14 688.76C457.14 692.83 456.06 696.68 453.9 700.33C451.74 703.98 448.55 706.93 444.32 709.17C440.09 711.41 435.03 712.53 429.14 712.53C423.25 712.53 418.37 711.53 414.02 709.54Z" fill="#231F20"/>
<path d="M485.27 643.69V626.64H476.43V643.69H466.97V651.03H476.43V693.22C476.43 699.78 477.92 704.48 480.91 707.35C482.07 708.46 483.47 709.35 485.1 710.03V679.9C485.1 679.41 485.16 678.97 485.27 678.55V651.03H503.94V643.69H485.27Z" fill="#231F20"/>
<path d="M518.44 659.19C521.22 653.92 525.08 649.86 530.02 646.99C534.96 644.13 540.54 642.7 546.76 642.7C552.98 642.7 558.81 644.19 563.5 647.18C568.19 650.17 571.57 653.98 573.64 658.63V643.69H582.35V711.65H573.64V696.59C571.48 701.24 568.06 705.07 563.37 708.1C558.68 711.13 553.1 712.64 546.63 712.64C540.16 712.64 534.95 711.19 530.01 708.28C525.07 705.38 521.21 701.27 518.43 695.96C515.65 690.65 514.26 684.51 514.26 677.54C514.26 670.57 515.65 664.45 518.43 659.18L518.44 659.19ZM570.28 663.24C568.04 659.09 564.99 655.9 561.13 653.66C557.27 651.42 553.02 650.3 548.37 650.3C543.72 650.3 539.24 651.38 535.43 653.54C531.61 655.7 528.6 658.83 526.41 662.94C524.21 667.05 523.11 671.92 523.11 677.56C523.11 683.2 524.21 687.99 526.41 692.18C528.61 696.37 531.62 699.57 535.43 701.76C539.25 703.96 543.56 705.06 548.37 705.06C553.18 705.06 557.27 703.94 561.13 701.7C564.99 699.46 568.04 696.27 570.28 692.12C572.52 687.97 573.64 683.16 573.64 677.68C573.64 672.2 572.52 667.39 570.28 663.24Z" fill="#231F20"/>
<path d="M619.75 645.93C623.69 643.61 628.52 642.45 634.25 642.45V651.54H631.89C625.58 651.54 620.52 653.24 616.71 656.64C612.89 660.04 610.98 665.73 610.98 673.69V711.65H602.27V643.69H610.98V655.76C612.89 651.53 615.81 648.25 619.75 645.93Z" fill="#231F20"/>
<path d="M658.65 643.69V626.64H649.81V643.69H640.35V651.03H649.81V693.22C649.81 699.78 651.3 704.48 654.29 707.35C655.49 708.5 656.97 709.41 658.68 710.1V694.66C658.66 694.2 658.64 693.73 658.64 693.23V651.04H677.31V643.7H658.64L658.65 643.69Z" fill="#231F20"/>
<path d="M765.14 690.99H725.56L717.97 711.65H708.76L740.5 625.77H750.33L781.94 711.65H772.73L765.14 690.99ZM762.52 683.77L745.34 636.72L728.16 683.77H762.51H762.52Z" fill="#231F20"/>
<path d="M822.64 651.04H806.83V711.65H798.12V651.04H788.66V643.7H798.12V638.97C798.12 631.59 800.01 626.15 803.78 622.67C807.55 619.18 813.67 617.44 822.14 617.44V624.91C816.5 624.91 812.53 625.99 810.25 628.15C807.97 630.31 806.83 633.92 806.83 638.98V643.71H822.64V651.05V651.04Z" fill="#231F20"/>
<path d="M853.81 645.93C857.75 643.61 862.58 642.45 868.31 642.45V651.54H865.95C859.64 651.54 854.58 653.24 850.77 656.64C846.95 660.04 845.04 665.73 845.04 673.69V711.65H836.33V643.69H845.04V655.76C846.95 651.53 849.87 648.25 853.81 645.93Z" fill="#231F20"/>
<path d="M881.26 629.01C880.02 627.77 879.39 626.23 879.39 624.4C879.39 622.57 880.01 621.06 881.26 619.86C882.5 618.66 884 618.06 885.74 618.06C887.48 618.06 888.98 618.66 890.22 619.86C891.46 621.06 892.09 622.58 892.09 624.4C892.09 626.22 891.47 627.76 890.22 629.01C888.98 630.25 887.48 630.88 885.74 630.88C884 630.88 882.5 630.26 881.26 629.01ZM890.1 643.69V711.65H881.39V643.69H890.1Z" fill="#231F20"/>
<path d="M910.13 659.19C912.95 653.92 916.85 649.86 921.83 646.99C926.81 644.13 932.49 642.7 938.88 642.7C947.26 642.7 954.17 644.77 959.6 648.92C965.03 653.07 968.54 658.71 970.12 665.85H960.79C959.63 660.96 957.12 657.12 953.26 654.34C949.4 651.56 944.61 650.17 938.88 650.17C934.32 650.17 930.21 651.21 926.56 653.28C922.91 655.35 920.03 658.45 917.91 662.55C915.79 666.66 914.74 671.7 914.74 677.67C914.74 683.64 915.8 688.71 917.91 692.85C920.03 697 922.91 700.11 926.56 702.18C930.21 704.26 934.32 705.29 938.88 705.29C944.61 705.29 949.4 703.9 953.26 701.12C957.12 698.34 959.63 694.46 960.79 689.48H970.12C968.54 696.45 965.02 702.05 959.54 706.28C954.06 710.51 947.18 712.63 938.88 712.63C932.49 712.63 926.81 711.2 921.83 708.34C916.85 705.48 912.95 701.41 910.13 696.14C907.31 690.87 905.9 684.71 905.9 677.66C905.9 670.61 907.31 664.45 910.13 659.18V659.19Z" fill="#231F20"/>
<path d="M986.37 659.19C989.15 653.92 993.01 649.86 997.95 646.99C1002.89 644.13 1008.47 642.7 1014.69 642.7C1020.91 642.7 1026.74 644.19 1031.43 647.18C1036.12 650.17 1039.5 653.98 1041.57 658.63V643.69H1050.28V711.65H1041.57V696.59C1039.41 701.24 1035.99 705.07 1031.3 708.1C1026.61 711.13 1021.03 712.64 1014.56 712.64C1008.09 712.64 1002.88 711.19 997.94 708.28C993 705.38 989.14 701.27 986.36 695.96C983.58 690.65 982.19 684.51 982.19 677.54C982.19 670.57 983.58 664.45 986.36 659.18L986.37 659.19ZM1038.2 663.24C1035.96 659.09 1032.91 655.9 1029.05 653.66C1025.19 651.42 1020.94 650.3 1016.29 650.3C1011.64 650.3 1007.16 651.38 1003.35 653.54C999.53 655.7 996.52 658.83 994.33 662.94C992.13 667.05 991.03 671.92 991.03 677.56C991.03 683.2 992.13 687.99 994.33 692.18C996.53 696.37 999.54 699.57 1003.35 701.76C1007.17 703.96 1011.48 705.06 1016.29 705.06C1021.1 705.06 1025.19 703.94 1029.05 701.7C1032.91 699.46 1035.96 696.27 1038.2 692.12C1040.44 687.97 1041.56 683.16 1041.56 677.68C1041.56 672.2 1040.44 667.39 1038.2 663.24Z" fill="#231F20"/>
</svg>
